<svg width="688" height="686" viewBox="0 0 688 686" fill="none" xmlns="http://www.w3.org/2000/svg">
<path d="M344.968 18.2364C348.159 19.713 348.159 19.713 351.53 21.8614C352.16 22.256 352.789 22.6506 353.437 23.0572C355.625 24.4346 357.796 25.8353 359.968 27.2364C361.712 28.347 363.457 29.4563 365.202 30.5645C368.011 32.3493 370.819 34.136 373.622 35.929C380.272 40.179 386.977 44.3247 393.723 48.4171C397.974 51.0011 402.175 53.6437 406.343 56.3614C413.282 60.8831 420.379 65.1426 427.468 69.4239C437.036 75.2032 446.522 81.0874 455.931 87.1244C465.374 93.1689 474.962 98.9707 484.555 104.775C494.635 110.88 504.619 117.138 514.609 123.39C521.32 127.588 528.045 131.765 534.78 135.924C541.431 140.031 548.054 144.176 554.655 148.361C564.904 154.855 575.223 161.237 585.655 167.432C594.208 172.512 602.613 177.799 610.996 183.154C617.289 187.173 623.603 191.145 629.984 195.023C632.547 196.591 635.101 198.176 637.655 199.76C639.739 201.044 641.822 202.328 643.905 203.611C644.902 204.231 645.898 204.851 646.925 205.49C647.876 206.074 648.828 206.658 649.808 207.26C650.657 207.785 651.507 208.31 652.382 208.851C655.174 210.347 657.942 211.317 660.968 212.236C661.161 241.247 660.601 270.234 659.968 299.236C655.723 297.62 652.188 295.498 648.468 292.924C634.594 283.51 620.18 274.931 605.79 266.337C600.751 263.323 595.77 260.239 590.835 257.057C587.076 254.67 583.272 252.362 579.468 250.049C573.134 246.197 566.848 242.277 560.593 238.299C553.107 233.54 545.541 228.933 537.904 224.42C533.197 221.627 528.619 218.698 524.08 215.638C521.082 213.649 518.005 211.811 514.905 209.986C509.471 206.755 504.077 203.466 498.718 200.111C498.105 199.728 497.493 199.345 496.862 198.95C493.134 196.611 489.418 194.251 485.706 191.885C479.957 188.224 474.186 184.599 468.405 180.986C467.359 180.332 466.312 179.678 465.234 179.004C458.386 174.731 451.517 170.494 444.621 166.298C438.925 162.83 433.257 159.318 427.593 155.799C420.752 151.552 413.881 147.364 406.968 143.236C393.209 135.012 379.503 126.717 366.241 117.708C360.952 114.149 355.472 111.009 349.894 107.928C346.968 106.236 346.968 106.236 344.823 104.451C343.08 103.051 343.08 103.051 341.128 103.322C338.086 104.609 335.252 106.198 332.405 107.861C331.27 108.514 330.134 109.166 328.964 109.838C324.865 112.262 320.86 114.832 316.848 117.398C312.18 120.377 307.479 123.305 302.78 126.236C300.667 127.555 298.554 128.874 296.441 130.193C295.369 130.862 294.298 131.531 293.195 132.219C290.053 134.183 286.914 136.152 283.776 138.123C272.714 145.067 261.6 151.906 250.382 158.596C245.587 161.457 240.836 164.383 236.089 167.322C233.272 169.05 230.439 170.745 227.598 172.432C221.637 175.974 215.771 179.628 209.968 183.424C202.957 188.002 195.861 192.43 188.718 196.799C187.729 197.407 186.74 198.015 185.722 198.641C184.787 199.21 183.853 199.779 182.89 200.365C181.646 201.124 181.646 201.124 180.377 201.899C177.962 203.239 175.538 204.234 172.968 205.236C172.967 206.181 172.967 206.181 172.966 207.146C172.93 244.481 172.874 281.816 172.79 319.151C172.78 323.634 172.77 328.116 172.76 332.598C172.757 333.937 172.757 333.937 172.754 335.303C172.723 349.754 172.706 364.205 172.695 378.656C172.682 393.483 172.655 408.31 172.613 423.137C172.588 432.287 172.575 441.437 172.576 450.587C172.576 456.86 172.562 463.133 172.536 469.407C172.521 473.027 172.513 476.647 172.522 480.267C172.532 484.192 172.511 488.118 172.487 492.043C172.495 493.186 172.502 494.329 172.51 495.507C172.427 503.217 171.309 507.77 165.836 513.449C165.068 514.09 164.301 514.731 163.511 515.392C159.51 518.855 155.673 522.408 151.923 526.136C151.394 526.661 150.865 527.186 150.32 527.728C148.639 529.4 146.961 531.076 145.284 532.752C144.095 533.938 142.906 535.124 141.717 536.31C139.245 538.775 136.775 541.243 134.307 543.712C131.149 546.87 127.985 550.021 124.818 553.17C122.369 555.608 119.924 558.051 117.481 560.495C116.316 561.659 115.149 562.821 113.98 563.982C112.351 565.602 110.728 567.227 109.107 568.855C108.184 569.776 107.262 570.697 106.311 571.646C104.128 574.06 102.581 576.425 100.968 579.236C100.638 579.236 100.308 579.236 99.9679 579.236C99.9679 471.326 99.9679 363.416 99.9679 252.236C93.2631 255.894 86.7912 259.492 80.4054 263.611C71.4996 269.299 62.5051 274.833 53.4925 280.349C46.2575 284.791 39.0903 289.319 32.0416 294.051C29.0272 296.047 26.5013 297.493 22.9679 298.236C22.9081 296.698 22.8484 295.16 22.7887 293.621C22.7492 292.606 22.7097 291.59 22.669 290.544C22.5802 288.235 22.493 285.926 22.4071 283.618C22.1716 277.317 21.9146 271.019 21.6114 264.721C21.3119 258.354 21.1097 251.989 20.9586 245.617C20.8806 243 20.7705 240.384 20.6305 237.77C19.5262 216.543 19.5262 216.543 23.5072 211.152C27.4512 207.716 31.9382 205.822 36.8169 204.059C39.8239 202.909 42.4253 201.279 45.1319 199.549C46.0373 199.001 46.9427 198.453 47.8756 197.889C48.7723 197.344 49.669 196.798 50.5929 196.236C52.0675 195.34 52.0675 195.34 53.5719 194.426C58.9107 191.162 64.1744 187.826 69.3429 184.299C76.703 179.284 84.3409 174.756 91.9901 170.199C107.654 160.864 123.22 151.364 138.511 141.428C143.675 138.117 148.972 135.022 154.242 131.883C159.975 128.458 165.646 124.948 171.28 121.361C178.291 116.899 185.359 112.542 192.468 108.236C200.405 103.428 208.284 98.5415 216.116 93.5645C222.106 89.764 228.149 86.0573 234.211 82.3736C239.563 79.114 244.867 75.7848 250.155 72.4239C257.146 67.9832 264.195 63.649 271.28 59.3614C278.84 54.7844 286.339 50.1276 293.78 45.3614C302.106 40.03 310.486 34.7923 318.905 29.6114C320.001 28.9361 321.098 28.2608 322.227 27.565C324.259 26.3173 326.295 25.0755 328.335 23.8409C329.912 22.8795 331.481 21.9011 333.027 20.8897C337.159 18.2695 340.111 17.5698 344.968 18.2364Z" fill="#0E5750"/>
<path d="M390.793 193.025C392.505 193.022 392.505 193.022 394.251 193.019C396.668 193.018 399.084 193.021 401.501 193.03C405.13 193.04 408.759 193.03 412.389 193.017C467.7 192.98 507.826 217.569 547 254.29C547.949 255.136 548.897 255.982 549.875 256.853C555.415 263.207 556.918 270.326 558.25 278.415C558.423 279.378 558.595 280.341 558.773 281.333C559.588 286.033 560.226 290.501 560 295.29C560.726 295.528 561.451 295.765 562.199 296.009C565.435 297.489 567.33 299.254 569.812 301.79C570.603 302.584 571.393 303.379 572.207 304.197C574 306.29 574 306.29 574 308.29C581.718 311.414 589.183 314.116 597.459 315.234C606.21 316.438 610.958 318.534 617 325.29C617.908 326.012 618.815 326.734 619.75 327.478C622.359 329.58 624.665 331.891 627 334.29C627.33 334.62 627.66 334.95 628 335.29C628.485 338.66 628.615 341.213 626.89 344.235C625.314 346.309 623.659 348.273 621.938 350.228C621.338 350.934 620.739 351.641 620.122 352.369C618.43 354.357 616.719 356.326 615 358.29C614.305 359.104 613.61 359.917 612.895 360.755C610.607 363.412 608.258 366.007 605.898 368.599C601.101 373.883 596.503 379.272 592.043 384.845C586.806 391.113 586.806 391.113 582.875 391.978C577.057 390.946 573.521 387.975 569 384.29C568.454 383.861 567.908 383.433 567.346 382.991C558.589 376.032 554.286 370.523 552 359.29C549.766 350.468 547.233 344 541 337.29C540.198 336.387 540.198 336.387 539.379 335.466C532.16 327.762 523.218 320.35 512.312 319.665C498.722 319.945 486.189 327.939 477 337.29C475.231 338.796 473.439 340.276 471.625 341.728C470.834 342.366 470.042 343.004 469.227 343.662C464.771 346.921 461.617 347.993 456 347.29C453.562 344.79 453.562 344.79 452 342.29C447.763 343.656 445.586 345.442 442.688 348.79C441.905 349.691 441.123 350.593 440.316 351.521C437.543 354.837 434.837 358.2 432.16 361.595C429.222 365.261 426.178 368.831 423.133 372.407C420.254 375.794 417.422 379.211 414.625 382.665C409.366 389.125 403.892 395.395 398.414 401.669C397.273 402.978 396.136 404.29 395 405.603C394.464 406.222 393.927 406.84 393.375 407.478C392.865 408.067 392.354 408.656 391.828 409.263C390.305 410.952 388.753 412.591 387.172 414.224C386.67 414.75 386.168 415.277 385.651 415.819C384.658 416.857 383.656 417.887 382.642 418.904C379.466 422.246 378.314 424.694 378 429.29C378.866 429.727 378.866 429.727 379.75 430.173C380.492 430.583 381.235 430.993 382 431.415C382.742 431.81 383.485 432.204 384.25 432.611C386 434.29 386 434.29 386.551 437.095C385.846 441.183 383.93 443.357 381.188 446.29C380.166 447.438 379.146 448.588 378.129 449.74C377.606 450.327 377.083 450.914 376.543 451.518C374.126 454.294 371.876 457.192 369.625 460.103C365.629 465.242 361.558 470.313 357.438 475.353C352.671 481.191 348.024 487.102 343.449 493.091C336.414 502.3 329.172 511.34 321.845 520.318C317.801 525.282 313.829 530.298 309.889 535.346C306.46 539.732 302.941 544.036 299.363 548.302C295.764 552.854 292.413 557.597 289 562.29C366.55 562.29 444.1 562.29 524 562.29C523.96 491.52 523.96 491.52 523.91 420.749C523.905 407.07 523.905 407.07 523.905 400.668C523.904 396.192 523.9 391.716 523.894 387.239C523.888 381.53 523.885 375.821 523.887 370.112C523.887 368.016 523.885 365.921 523.881 363.825C523.876 360.994 523.877 358.163 523.88 355.332C523.877 354.513 523.874 353.693 523.871 352.848C523.883 348.225 524.235 343.851 525 339.29C532.698 346.633 539.744 356.248 540.141 367.154C540.164 368.232 540.164 368.232 540.187 369.331C540.185 378.222 540.185 378.222 544.242 385.775C545.112 386.525 545.112 386.525 546 387.29C546.766 387.956 547.531 388.621 548.32 389.306C550.158 390.838 552.017 392.343 553.895 393.826C557.226 396.47 560.458 399.212 563.688 401.978C572.286 410.16 572.286 410.16 582.812 414.665C587.127 414.158 588.312 412.632 591 409.29C592.793 406.124 592.793 406.124 594 403.29C594.66 403.29 595.32 403.29 596 403.29C597 487.5 597 559.956 597 638.29C436.29 638.29 275.58 638.29 110 638.29C110 618.29 110 618.29 113.543 612.794C115.799 610.734 115.799 610.734 118.188 608.853C118.956 608.174 119.725 607.496 120.518 606.796C121.993 605.498 123.487 604.219 125.001 602.965C128.281 600.217 131.211 597.324 133.812 593.915C136.242 591 138.915 588.703 141.789 586.24C199.287 535.548 257.246 475.31 305.688 416.04C308 413.29 308 413.29 310 412.29C310.291 411.53 310.582 410.77 310.883 409.986C312.135 406.964 313.539 405.42 315.879 403.154C316.635 402.412 317.391 401.67 318.17 400.906C318.959 400.146 319.749 399.386 320.562 398.603C322.128 397.08 323.692 395.556 325.254 394.029C325.948 393.359 326.642 392.689 327.358 391.999C329.082 390.375 329.082 390.375 330 388.29C333.299 388.657 334.098 389.396 336.438 391.915C338.699 394.547 338.699 394.547 341.301 394.306C345.049 392.896 347.183 390.363 349.75 387.415C350.534 386.541 350.534 386.541 351.335 385.649C355.366 381.12 359.193 376.433 362.988 371.704C364.741 369.601 366.533 367.69 368.5 365.79C373.107 361.332 376.998 356.286 381 351.29C386.963 343.847 393.167 336.736 399.652 329.751C402.513 326.65 405.314 323.495 408.125 320.349C410 318.29 410 318.29 411.746 316.654C413.245 315.323 413.245 315.323 413.062 313.04C411.767 309.687 409.889 307.563 407.473 304.939C404.377 301.473 403.487 298.991 403.612 294.328C404.277 290.836 406.62 288.792 409.125 286.478C413.533 282.049 416.713 277.872 419.523 272.236C421.626 268.042 424.01 264.022 426.374 259.973C429.058 255.325 430.2 251.835 430.375 246.478C430.424 245.461 430.473 244.444 430.523 243.396C429.838 239.332 427.994 236.973 425 234.29C421.926 232.241 421.926 232.241 418.5 230.665C417.397 230.116 416.293 229.567 415.156 229.001C405.204 224.688 395.802 222.669 384.977 222.654C383.768 222.64 382.559 222.627 381.313 222.613C377.417 222.583 373.521 222.589 369.625 222.603C368.283 222.602 366.941 222.601 365.599 222.599C343.989 222.599 323.586 224.887 302.515 229.634C297.894 230.497 293.684 230.548 289 230.29C289 225.34 289 220.39 289 215.29C291.738 214.378 294.475 213.467 297.215 212.56C299.84 211.679 302.455 210.783 305.066 209.865C313.312 206.995 321.57 204.515 330.062 202.478C330.918 202.271 331.774 202.064 332.656 201.851C336.787 200.894 340.837 200.147 345.059 199.716C348.767 199.732 348.767 199.732 350 198.29C356.282 196.615 362.3 195.955 368.789 195.634C372.009 195.408 372.009 195.408 374.964 194.286C380.157 192.769 385.425 193.005 390.793 193.025Z" fill="#F39842"/>
</svg>
